<svg width="307" height="167" viewBox="0 0 307 167" fill="none" xmlns="http://www.w3.org/2000/svg">
<path d="M133.198 99.4033H33.7976C28.2035 99.4033 19.8801 103.109 19.8801 113.321V133.201C19.8801 133.825 19.9966 139.424 24.0125 143.421C26.4449 145.84 29.8007 147.118 33.7225 147.118H33.8168C43.7511 147.065 113.308 147.118 113.308 147.118H113.314C114.368 147.118 115.38 146.699 116.126 145.953L145.946 116.133C146.689 115.387 147.111 114.375 147.111 113.321C147.111 107.727 143.403 99.4037 133.194 99.4037L133.198 99.4033ZM111.67 139.163C101.081 139.155 42.8117 139.113 33.7763 139.163C28.5761 139.177 27.8688 134.975 27.8355 133.2V113.32C27.8355 108.051 32.0179 107.394 33.8262 107.358H133.198C137.291 107.358 138.6 109.879 139 111.837L111.67 139.163Z" fill="white"/>
<path d="M111.67 139.163C101.081 139.155 42.8117 139.113 33.7763 139.163C28.5761 139.177 27.8688 134.975 27.8355 133.2V113.32C27.8355 108.051 32.0179 107.394 33.8262 107.358H133.198C137.291 107.358 138.6 109.879 139 111.837L111.67 139.163Z" fill="#E10000"/>
<path d="M286.195 3.19834C285.824 1.34013 284.19 0.000574188 282.296 0.000574188C274.367 0.000574188 248.498 1.00458 248.498 13.918C248.498 16.1146 250.279 17.8951 252.476 17.8951H268.908L277.761 79.859C275.82 79.6371 273.981 79.5234 272.356 79.5206H33.7889C32.1664 79.5234 30.3304 79.6343 28.3918 79.8534L37.2448 17.8946H53.6777C55.8743 17.8946 57.6548 16.114 57.6548 13.9174C57.6548 1.00393 31.7867 0 23.8574 0C21.9631 0 20.3296 1.33679 19.958 3.195L1.42554 95.85C0.543574 98.0798 0 100.554 0 103.375V143.135C0 156.289 10.6997 166.992 23.8574 166.992H133.197C135.394 166.992 137.175 165.211 137.175 163.015C137.175 162.757 137.358 137.172 153.077 137.172C168.736 137.172 168.98 162.763 168.98 163.021C168.985 165.212 170.766 166.992 172.957 166.992H282.297C295.451 166.992 306.154 156.292 306.154 143.135V103.375C306.154 100.554 305.611 98.0803 304.729 95.8501L286.195 3.19834ZM276.291 13.3549C276.011 11.3969 274.333 9.94078 272.356 9.94078H264.127C268.107 8.96453 273.329 8.224 279.046 8.01327L294.414 84.8424C291.773 83.3863 288.908 82.2742 286.021 81.4616L276.291 13.3549ZM27.1028 8.01327C32.8327 8.22406 38.0637 8.96177 42.049 9.94363L33.7952 9.94086C31.8177 9.94086 30.1399 11.3942 29.8597 13.355L20.1306 81.4653C17.2434 82.2779 14.3784 83.3872 11.7384 84.8461L27.1028 8.01327ZM298.195 143.14C298.195 151.91 291.059 159.043 282.292 159.043H176.758C175.735 146.945 169.969 129.223 153.076 129.223C136.183 129.223 130.417 146.945 129.394 159.043H23.8595C15.0896 159.043 7.95689 151.907 7.95689 143.14V103.772L9.07458 98.186C14.0002 87.7021 33.5838 87.4778 33.7996 87.4778H272.353C272.58 87.4778 292.147 87.6553 297.08 98.1583L298.204 103.772L298.195 143.14Z" fill="white"/>
<path d="M272.357 99.4034H172.957C162.748 99.4034 159.04 107.727 159.04 113.321C159.04 114.375 159.459 115.387 160.205 116.133L190.025 145.953C190.771 146.696 191.783 147.118 192.837 147.118H192.84C192.843 147.115 262.401 147.062 272.331 147.118H272.426C276.347 147.118 279.703 145.839 282.136 143.421C286.154 139.424 286.271 133.825 286.271 133.2V113.32C286.271 103.111 277.948 99.403 272.354 99.403L272.357 99.4034ZM278.32 133.201C278.32 133.229 278.215 136.11 276.531 137.785C275.589 138.723 274.243 139.111 272.38 139.164C269.063 139.147 259.103 139.141 247.302 139.141C226.973 139.141 201.183 139.158 194.485 139.164L167.155 111.834C167.535 110.018 168.803 107.358 172.958 107.358H272.358C273.353 107.358 278.32 107.646 278.32 113.321L278.32 133.201Z" fill="white"/>
<path d="M278.32 133.201C278.32 133.229 278.215 136.11 276.531 137.785C275.589 138.723 274.243 139.111 272.38 139.164C269.063 139.147 259.103 139.141 247.302 139.141C226.973 139.141 201.183 139.158 194.485 139.164L167.155 111.834C167.535 110.018 168.803 107.358 172.958 107.358H272.358C273.353 107.358 278.32 107.646 278.32 113.321L278.32 133.201Z" fill="#0027B0"/>
</svg>
